<svg width="20" height="20" viewBox="0 0 20 20" fill="none" xmlns="http://www.w3.org/2000/svg">
<g id="Frame">
<path id="Vector" d="M10.8565 1.66663C11.794 1.66913 12.2698 1.67413 12.6807 1.68579L12.8423 1.69163C13.029 1.69829 13.2132 1.70663 13.4357 1.71663C14.3223 1.75829 14.9273 1.89829 15.4582 2.10413C16.0082 2.31579 16.4715 2.60246 16.9348 3.06496C17.3587 3.4814 17.6866 3.98535 17.8957 4.54163C18.1015 5.07246 18.2415 5.67746 18.2832 6.56496C18.2932 6.78663 18.3015 6.97079 18.3082 7.15829L18.3132 7.31996C18.3257 7.72996 18.3307 8.20579 18.3323 9.14329L18.3332 9.76496V10.8566C18.3352 11.4645 18.3288 12.0723 18.314 12.68L18.309 12.8416C18.3023 13.0291 18.294 13.2133 18.284 13.435C18.2423 14.3225 18.1007 14.9266 17.8957 15.4583C17.6866 16.0146 17.3587 16.5185 16.9348 16.935C16.5184 17.3589 16.0144 17.6868 15.4582 17.8958C14.9273 18.1016 14.3223 18.2416 13.4357 18.2833L12.8423 18.3083L12.6807 18.3133C12.2698 18.325 11.794 18.3308 10.8565 18.3325L10.2348 18.3333H9.14399C8.53587 18.3354 7.92776 18.329 7.31982 18.3141L7.15816 18.3091C6.96033 18.3016 6.76255 18.293 6.56482 18.2833C5.67816 18.2416 5.07316 18.1016 4.54149 17.8958C3.98551 17.6867 3.48186 17.3588 3.06566 16.935C2.64144 16.5186 2.31325 16.0146 2.10399 15.4583C1.89816 14.9275 1.75816 14.3225 1.71649 13.435L1.69149 12.8416L1.68732 12.68C1.67196 12.0723 1.66502 11.4645 1.66649 10.8566V9.14329C1.66418 8.53546 1.67029 7.92762 1.68482 7.31996L1.69066 7.15829C1.69732 6.97079 1.70566 6.78663 1.71566 6.56496C1.75732 5.67746 1.89732 5.07329 2.10316 4.54163C2.3129 3.98512 2.64168 3.48116 3.06649 3.06496C3.48245 2.64125 3.98581 2.31335 4.54149 2.10413C5.07316 1.89829 5.67732 1.75829 6.56482 1.71663C6.78649 1.70663 6.97149 1.69829 7.15816 1.69163L7.31982 1.68663C7.92748 1.67182 8.53532 1.66543 9.14316 1.66746L10.8565 1.66663ZM9.99982 5.83329C8.89475 5.83329 7.83495 6.27228 7.05354 7.05368C6.27214 7.83508 5.83316 8.89489 5.83316 9.99996C5.83316 11.105 6.27214 12.1648 7.05354 12.9462C7.83495 13.7276 8.89475 14.1666 9.99982 14.1666C11.1049 14.1666 12.1647 13.7276 12.9461 12.9462C13.7275 12.1648 14.1665 11.105 14.1665 9.99996C14.1665 8.89489 13.7275 7.83508 12.9461 7.05368C12.1647 6.27228 11.1049 5.83329 9.99982 5.83329ZM9.99982 7.49996C10.3281 7.4999 10.6532 7.56452 10.9566 7.6901C11.2599 7.81569 11.5355 7.99979 11.7677 8.2319C11.9999 8.46401 12.1841 8.73957 12.3098 9.04287C12.4355 9.34616 12.5002 9.67124 12.5002 9.99954C12.5003 10.3278 12.4357 10.6529 12.3101 10.9563C12.1845 11.2596 12.0004 11.5352 11.7683 11.7674C11.5362 11.9996 11.2606 12.1838 10.9573 12.3095C10.654 12.4352 10.329 12.4999 10.0007 12.5C9.33762 12.5 8.70173 12.2366 8.23289 11.7677C7.76405 11.2989 7.50066 10.663 7.50066 9.99996C7.50066 9.33692 7.76405 8.70103 8.23289 8.23219C8.70173 7.76335 9.33762 7.49996 10.0007 7.49996M14.3757 4.58329C14.0994 4.58329 13.8344 4.69304 13.6391 4.88839C13.4437 5.08374 13.334 5.34869 13.334 5.62496C13.334 5.90123 13.4437 6.16618 13.6391 6.36153C13.8344 6.55688 14.0994 6.66663 14.3757 6.66663C14.6519 6.66663 14.9169 6.55688 15.1122 6.36153C15.3076 6.16618 15.4173 5.90123 15.4173 5.62496C15.4173 5.34869 15.3076 5.08374 15.1122 4.88839C14.9169 4.69304 14.6519 4.58329 14.3757 4.58329Z" fill="white"/>
</g>
</svg>
