<svg width="393" height="852" viewBox="0 0 393 852" fill="none" xmlns="http://www.w3.org/2000/svg">
    <g clip-path="url(#clip0_1_821)">
        <path fill-rule="evenodd" clip-rule="evenodd" d="M393 0H0V852H393V0ZM85 306C80.5817 306 77 309.582 77 314V538C77 542.418 80.5817 546 85 546H309C313.418 546 317 542.418 317 538V314C317 309.582 313.418 306 309 306H85Z" fill="#0A0A0A" fill-opacity="0.6"/>
        <path fill-rule="evenodd" clip-rule="evenodd" d="M393 0H0V852H393V0ZM85 306C80.5817 306 77 309.582 77 314V538C77 542.418 80.5817 546 85 546H309C313.418 546 317 542.418 317 538V314C317 309.582 313.418 306 309 306H85Z" fill="#0A0A0A" fill-opacity="0.6"/>
        <rect x="77.5" y="306.5" width="239" height="239" rx="7.5" stroke="#525252" stroke-opacity="0.6"/>
        <path d="M77 330L77 314C77 309.582 80.5817 306 85 306L101 306" stroke="white" stroke-width="2" stroke-linecap="round" stroke-linejoin="round"/>
        <path d="M77 522V538C77 542.418 80.5817 546 85 546H101" stroke="white" stroke-width="2" stroke-linecap="round" stroke-linejoin="round"/>
        <path d="M317 522V538C317 542.418 313.418 546 309 546H293" stroke="white" stroke-width="2" stroke-linecap="round" stroke-linejoin="round"/>
        <path d="M317 330L317 314C317 309.582 313.418 306 309 306L293 306" stroke="white" stroke-width="2" stroke-linecap="round" stroke-linejoin="round"/>
    </g>
    <defs>
        <clipPath id="clip0_1_821">
            <rect width="393" height="852" fill="white"/>
        </clipPath>
    </defs>
</svg>
